<?xml version="1.0" ?><svg style="enable-background:new 0 0 24 24;" version="1.1" viewBox="0 0 24 24" xml:space="preserve" xmlns="http://www.w3.org/2000/svg" xmlns:xlink="http://www.w3.org/1999/xlink"><style type="text/css">
	.st0{display:none;}
	.st1{display:inline;}
	.st2{opacity:0.2;fill:none;stroke:#000000;stroke-width:5.000000e-02;stroke-miterlimit:10;}
</style><g class="st0" id="grid_system"/><g id="_icons"><path d="M5,16.4h1.2l2.3,1.8c0.9,0.7,1.9,1.2,2.9,1.6c0.4,0.1,0.8,0.2,1.2,0.2c0.7,0,1.4-0.2,2-0.6c0.9-0.6,1.4-1.6,1.4-2.7V7.3   c0-1.1-0.5-2-1.4-2.7c-0.9-0.6-2.1-0.8-3.1-0.4c-1.1,0.4-2.1,0.9-2.9,1.6L6.2,7.6H5c-1.7,0-3,1.3-3,3v2.9C2,15.1,3.3,16.4,5,16.4z    M7.5,9.1l2.2-1.7c0.7-0.6,1.5-1,2.4-1.3c0.4-0.2,0.9-0.1,1.3,0.2c0.3,0.2,0.5,0.6,0.5,1v9.4c0,0.4-0.2,0.8-0.6,1   c-0.4,0.3-0.9,0.3-1.3,0.2c-0.9-0.3-1.7-0.8-2.4-1.3l-2.2-1.7V9.1z M4,10.6c0-0.6,0.4-1,1-1h0.5v4.9H5c-0.6,0-1-0.4-1-1V10.6z"/><path d="M18.7,14.7c0.7-0.7,1-1.6,1-2.7s-0.4-2-1-2.7c-0.4-0.4-1-0.4-1.4,0c-0.4,0.4-0.4,1,0,1.4c0.3,0.3,0.5,0.8,0.5,1.3   s-0.2,1-0.5,1.3c-0.4,0.4-0.4,1,0,1.4c0.2,0.2,0.4,0.3,0.7,0.3C18.3,15,18.5,14.9,18.7,14.7z"/><path d="M19.4,6.1c-0.5-0.2-1.1,0-1.3,0.5c-0.2,0.5,0,1.1,0.5,1.3C20,8.5,21,10.1,21,12s-1,3.5-2.4,4.1c-0.5,0.2-0.8,0.8-0.5,1.3   c0.2,0.4,0.5,0.6,0.9,0.6c0.1,0,0.3,0,0.4-0.1C21.5,17,23,14.7,23,12S21.5,7,19.4,6.1z"/></g></svg>